<svg preserveAspectRatio="none" width="100%" height="100%" overflow="visible" style="display: block;" viewBox="0 0 62 62" fill="none" xmlns="http://www.w3.org/2000/svg">
<g id="Frame 3" filter="url(#filter0_d_0_4)">
<rect x="1" y="1" width="52" height="52" rx="25" fill="var(--fill-0, #141416)" fill-opacity="0.2" shape-rendering="crispEdges"/>
<rect x="1.125" y="1.125" width="51.75" height="51.75" rx="24.875" stroke="var(--stroke-0, #F27F37)" stroke-width="0.25" shape-rendering="crispEdges"/>
<path id="Vector" d="M32.3932 22.3H31.2145C30.6462 22.3 30.1011 22.5213 29.6992 22.9151C29.2973 23.3089 29.0715 23.843 29.0715 24.4V28.6C29.0715 29.7139 28.6199 30.7822 27.8162 31.5698C27.0124 32.3575 25.9222 32.8 24.7855 32.8H23.6068C23.3413 34.0747 22.6022 35.2075 21.5328 35.9785C20.4635 36.7496 19.14 37.1042 17.8191 36.9734C16.4981 36.8426 15.2737 36.2359 14.3834 35.2708C13.493 34.3057 13 33.051 13 31.75C13 30.449 13.493 29.1943 14.3834 28.2292C15.2737 27.2641 16.4981 26.6574 17.8191 26.5266C19.14 26.3958 20.4635 26.7504 21.5328 27.5214C22.6022 28.2925 23.3413 29.4253 23.6068 30.7H24.7855C25.3538 30.7 25.8989 30.4787 26.3008 30.0849C26.7027 29.6911 26.9285 29.157 26.9285 28.6V24.4C26.9285 23.2861 27.3801 22.2178 28.1838 21.4302C28.9876 20.6425 30.0778 20.2 31.2145 20.2H32.3932C32.6587 18.9253 33.3978 17.7925 34.4672 17.0215C35.5365 16.2504 36.86 15.8958 38.1809 16.0266C39.5019 16.1574 40.7263 16.7641 41.6166 17.7292C42.507 18.6943 43 19.949 43 21.25C43 22.551 42.507 23.8057 41.6166 24.7708C40.7263 25.7359 39.5019 26.3427 38.1809 26.4734C36.86 26.6042 35.5365 26.2497 34.4672 25.4786C33.3978 24.7075 32.6587 23.5747 32.3932 22.3Z" fill="var(--fill-0, #F27F37)"/>
</g>
<defs>
<filter id="filter0_d_0_4" x="0" y="0" width="62" height="62" filterUnits="userSpaceOnUse" color-interpolation-filters="sRGB">
<feFlood flood-opacity="0" result="BackgroundImageFix"/>
<feColorMatrix in="SourceAlpha" type="matrix" values="0 0 0 0 0 0 0 0 0 0 0 0 0 0 0 0 0 0 127 0" result="hardAlpha"/>
<feOffset dx="4" dy="4"/>
<feGaussianBlur stdDeviation="2.5"/>
<feComposite in2="hardAlpha" operator="out"/>
<feColorMatrix type="matrix" values="0 0 0 0 0 0 0 0 0 0 0 0 0 0 0 0 0 0 1 0"/>
<feBlend mode="normal" in2="BackgroundImageFix" result="effect1_dropShadow_0_4"/>
<feBlend mode="normal" in="BackgroundImageFix" in2="effect1_dropShadow_0_4" result="BackgroundImageFix"/>
<feBlend mode="normal" in="SourceGraphic" in2="BackgroundImageFix" result="shape"/>
</filter>
</defs>
</svg>
