<svg preserveAspectRatio="none" width="100%" height="100%" overflow="visible" style="display: block;" viewBox="0 0 60 60" fill="none" xmlns="http://www.w3.org/2000/svg">
<g id="Frame 120" filter="url(#filter0_ii_0_4)">
<rect width="60" height="60" rx="30" fill="var(--fill-0, #141416)"/>
<path id="Vector" d="M34.3932 25.8H33.2145C32.6462 25.8 32.1011 26.0213 31.6992 26.4151C31.2973 26.8089 31.0715 27.343 31.0715 27.9V32.1C31.0715 33.2139 30.6199 34.2822 29.8162 35.0698C29.0124 35.8575 27.9222 36.3 26.7855 36.3H25.6068C25.3413 37.5747 24.6022 38.7075 23.5328 39.4785C22.4635 40.2496 21.14 40.6042 19.8191 40.4734C18.4981 40.3426 17.2737 39.7359 16.3834 38.7708C15.493 37.8057 15 36.551 15 35.25C15 33.949 15.493 32.6943 16.3834 31.7292C17.2737 30.7641 18.4981 30.1574 19.8191 30.0266C21.14 29.8958 22.4635 30.2504 23.5328 31.0214C24.6022 31.7925 25.3413 32.9253 25.6068 34.2H26.7855C27.3538 34.2 27.8989 33.9787 28.3008 33.5849C28.7027 33.1911 28.9285 32.657 28.9285 32.1V27.9C28.9285 26.7861 29.3801 25.7178 30.1838 24.9302C30.9876 24.1425 32.0778 23.7 33.2145 23.7H34.3932C34.6587 22.4253 35.3978 21.2925 36.4672 20.5215C37.5365 19.7504 38.86 19.3958 40.1809 19.5266C41.5019 19.6574 42.7263 20.2641 43.6166 21.2292C44.507 22.1943 45 23.449 45 24.75C45 26.051 44.507 27.3057 43.6166 28.2708C42.7263 29.2359 41.5019 29.8427 40.1809 29.9734C38.86 30.1042 37.5365 29.7497 36.4672 28.9786C35.3978 28.2075 34.6587 27.0747 34.3932 25.8Z" fill="var(--fill-0, #808080)"/>
</g>
<defs>
<filter id="filter0_ii_0_4" x="-1" y="-1" width="63" height="63" filterUnits="userSpaceOnUse" color-interpolation-filters="sRGB">
<feFlood flood-opacity="0" result="BackgroundImageFix"/>
<feBlend mode="normal" in="SourceGraphic" in2="BackgroundImageFix" result="shape"/>
<feColorMatrix in="SourceAlpha" type="matrix" values="0 0 0 0 0 0 0 0 0 0 0 0 0 0 0 0 0 0 127 0" result="hardAlpha"/>
<feOffset dx="2" dy="2"/>
<feGaussianBlur stdDeviation="1"/>
<feComposite in2="hardAlpha" operator="arithmetic" k2="-1" k3="1"/>
<feColorMatrix type="matrix" values="0 0 0 0 0 0 0 0 0 0 0 0 0 0 0 0 0 0 1 0"/>
<feBlend mode="normal" in2="shape" result="effect1_innerShadow_0_4"/>
<feColorMatrix in="SourceAlpha" type="matrix" values="0 0 0 0 0 0 0 0 0 0 0 0 0 0 0 0 0 0 127 0" result="hardAlpha"/>
<feOffset dx="-1" dy="-1"/>
<feGaussianBlur stdDeviation="1.5"/>
<feComposite in2="hardAlpha" operator="arithmetic" k2="-1" k3="1"/>
<feColorMatrix type="matrix" values="0 0 0 0 0.215686 0 0 0 0 0.215686 0 0 0 0 0.215686 0 0 0 1 0"/>
<feBlend mode="normal" in2="effect1_innerShadow_0_4" result="effect2_innerShadow_0_4"/>
</filter>
</defs>
</svg>
