<svg preserveAspectRatio="none" width="100%" height="100%" overflow="visible" style="display: block;" viewBox="0 0 70 70" fill="none" xmlns="http://www.w3.org/2000/svg">
<g id="Frame 120" filter="url(#filter0_d_0_4)">
<rect x="1" y="1" width="60" height="60" rx="30" fill="var(--fill-0, #141416)" fill-opacity="0.2" shape-rendering="crispEdges"/>
<rect x="1.5" y="1.5" width="59" height="59" rx="29.5" stroke="var(--stroke-0, #F27F37)" shape-rendering="crispEdges"/>
<path id="Vector" d="M35.3932 26.8H34.2145C33.6462 26.8 33.1011 27.0213 32.6992 27.4151C32.2973 27.8089 32.0715 28.343 32.0715 28.9V33.1C32.0715 34.2139 31.6199 35.2822 30.8162 36.0698C30.0124 36.8575 28.9222 37.3 27.7855 37.3H26.6068C26.3413 38.5747 25.6022 39.7075 24.5328 40.4785C23.4635 41.2496 22.14 41.6042 20.8191 41.4734C19.4981 41.3426 18.2737 40.7359 17.3834 39.7708C16.493 38.8057 16 37.551 16 36.25C16 34.949 16.493 33.6943 17.3834 32.7292C18.2737 31.7641 19.4981 31.1574 20.8191 31.0266C22.14 30.8958 23.4635 31.2504 24.5328 32.0214C25.6022 32.7925 26.3413 33.9253 26.6068 35.2H27.7855C28.3538 35.2 28.8989 34.9787 29.3008 34.5849C29.7027 34.1911 29.9285 33.657 29.9285 33.1V28.9C29.9285 27.7861 30.3801 26.7178 31.1838 25.9302C31.9876 25.1425 33.0778 24.7 34.2145 24.7H35.3932C35.6587 23.4253 36.3978 22.2925 37.4672 21.5215C38.5365 20.7504 39.86 20.3958 41.1809 20.5266C42.5019 20.6574 43.7263 21.2641 44.6166 22.2292C45.507 23.1943 46 24.449 46 25.75C46 27.051 45.507 28.3057 44.6166 29.2708C43.7263 30.2359 42.5019 30.8427 41.1809 30.9734C39.86 31.1042 38.5365 30.7497 37.4672 29.9786C36.3978 29.2075 35.6587 28.0747 35.3932 26.8Z" fill="var(--fill-0, #F27F37)"/>
</g>
<defs>
<filter id="filter0_d_0_4" x="0" y="0" width="70" height="70" filterUnits="userSpaceOnUse" color-interpolation-filters="sRGB">
<feFlood flood-opacity="0" result="BackgroundImageFix"/>
<feColorMatrix in="SourceAlpha" type="matrix" values="0 0 0 0 0 0 0 0 0 0 0 0 0 0 0 0 0 0 127 0" result="hardAlpha"/>
<feOffset dx="4" dy="4"/>
<feGaussianBlur stdDeviation="2.5"/>
<feComposite in2="hardAlpha" operator="out"/>
<feColorMatrix type="matrix" values="0 0 0 0 0 0 0 0 0 0 0 0 0 0 0 0 0 0 1 0"/>
<feBlend mode="normal" in2="BackgroundImageFix" result="effect1_dropShadow_0_4"/>
<feBlend mode="normal" in="BackgroundImageFix" in2="effect1_dropShadow_0_4" result="BackgroundImageFix"/>
<feBlend mode="normal" in="SourceGraphic" in2="BackgroundImageFix" result="shape"/>
</filter>
</defs>
</svg>
